<mxfile host="app.diagrams.net" modified="2023-08-11T05:25:56.886Z" agent="Mozilla/5.0 (Windows NT 10.0; Win64; x64) AppleWebKit/537.36 (KHTML, like Gecko) Chrome/115.0.0.0 Safari/537.36" version="21.6.3" etag="O12d7C5BFT11HC_aZ05U" type="github">
  <diagram name="페이지-1" id="qXfo1gqJkaz8tIWw0WHa">
    <mxGraphModel>
      <root>
        <mxCell id="0" />
        <mxCell id="1" parent="0" />
      </root>
    </mxGraphModel>
  </diagram>
</mxfile>
